HIERARCHY
ROOT Hips
{
	OFFSET -0.001795 -0.223333 0.028219
	CHANNELS 6 Xposition Yposition Zposition Zrotation Yrotation Xrotation 
	JOINT LeftUpLeg
	{
		OFFSET 0.069520 -0.091406 -0.006815
		CHANNELS 3 Zrotation Yrotation Xrotation
		JOINT LeftLeg
		{
			OFFSET 0.034277 -0.375199 -0.004496
			CHANNELS 3 Zrotation Yrotation Xrotation
			JOINT LeftFoot
			{
				OFFSET -0.013596 -0.397961 -0.043693
				CHANNELS 3 Zrotation Yrotation Xrotation
				JOINT LeftToe
				{
					OFFSET 0.026358 -0.055791 0.119288
					CHANNELS 3 Zrotation Yrotation Xrotation
					End Site
					{
						OFFSET 0.000000 0.000000 0.000000
					}
				}
			}
		}
	}
	JOINT RightUpLeg
	{
		OFFSET -0.067670 -0.090522 -0.004320
		CHANNELS 3 Zrotation Yrotation Xrotation
		JOINT RightLeg
		{
			OFFSET -0.038290 -0.382569 -0.008850
			CHANNELS 3 Zrotation Yrotation Xrotation
			JOINT RightFoot
			{
				OFFSET 0.015774 -0.398415 -0.042312
				CHANNELS 3 Zrotation Yrotation Xrotation
				JOINT RightToe
				{
					OFFSET -0.025372 -0.048144 0.123348
					CHANNELS 3 Zrotation Yrotation Xrotation
					End Site
					{
						OFFSET 0.000000 0.000000 0.000000
					}
				}
			}
		}
	}
	JOINT Spine
	{
		OFFSET -0.002533 0.108963 -0.026696
		CHANNELS 3 Zrotation Yrotation Xrotation
		JOINT Spine1
		{
			OFFSET 0.005487 0.135180 0.001092
			CHANNELS 3 Zrotation Yrotation Xrotation
			JOINT Spine2
			{
				OFFSET 0.001457 0.052922 0.025425
				CHANNELS 3 Zrotation Yrotation Xrotation
				JOINT Neck
				{
					OFFSET -0.002778 0.213870 -0.042857
					CHANNELS 3 Zrotation Yrotation Xrotation
					JOINT Head
					{
						OFFSET 0.005152 0.064970 0.051349
						CHANNELS 3 Zrotation Yrotation Xrotation
						End Site
						{
							OFFSET 0.000000 0.000000 0.000000
						}
					}
				}
				JOINT LeftShoulder
				{
					OFFSET 0.078845 0.121749 -0.034090
					CHANNELS 3 Zrotation Yrotation Xrotation
					JOINT LeftArm
					{
						OFFSET 0.090977 0.030469 -0.008868
						CHANNELS 3 Zrotation Yrotation Xrotation
						JOINT LeftForeArm
						{
							OFFSET 0.259612 -0.012772 -0.027456
							CHANNELS 3 Zrotation Yrotation Xrotation
							JOINT LeftHand
							{
								OFFSET 0.249234 0.008986 -0.001171
								CHANNELS 3 Zrotation Yrotation Xrotation
								End Site
								{
									OFFSET 0.000000 0.000000 0.000000
								}
							}
						}
					}
				}
				JOINT RightShoulder
				{
					OFFSET -0.081759 0.118833 -0.038615
					CHANNELS 3 Zrotation Yrotation Xrotation
					JOINT RightArm
					{
						OFFSET -0.096012 0.032551 -0.009143
						CHANNELS 3 Zrotation Yrotation Xrotation
						JOINT RightForeArm
						{
							OFFSET -0.253742 -0.013329 -0.021401
							CHANNELS 3 Zrotation Yrotation Xrotation
							JOINT RightHand
							{
								OFFSET -0.255298 0.007772 -0.005559
								CHANNELS 3 Zrotation Yrotation Xrotation
								End Site
								{
									OFFSET 0.000000 0.000000 0.000000
								}
							}
						}
					}
				}
			}
		}
	}
}
MOTION
Frames: 12
Frame Time: 0.050000
0.000000 0.938351 0.000000 0.924524 1.959551 5.536190 6.015136 -0.299492 -3.265332 0.748495 0.112467 -4.720202 1.150878 6.833757 12.405072 0.000000 0.000000 0.000000 -5.153670 0.353329 -3.420103 -2.435394 0.121244 -2.307807 -1.875101 -8.085729 11.243341 0.000000 0.000000 0.000000 4.859254 0.169294 -3.712515 -3.083573 1.445494 -0.710658 -6.285538 4.338111 -0.500215 3.418206 -2.500441 -1.101567 0.000000 0.000000 0.000000 -18.055632 -2.943255 -1.992981 -51.020581 -4.041754 -3.563306 -6.206314 -14.991961 1.174286 0.000000 0.000000 0.000000 16.065246 -5.397001 -3.060881 62.351637 1.665635 -4.381016 5.625225 21.789352 1.931728 0.000000 0.000000 0.000000 
0.000358 0.937413 0.000160 1.227776 2.120742 6.362484 5.597213 -0.302188 -3.059882 0.894334 0.184002 -6.714771 0.980453 6.707653 12.856594 0.000000 0.000000 0.000000 -5.282458 0.419076 -4.500751 -2.843819 0.185597 -1.857366 -2.100291 -8.413671 10.889926 0.000000 0.000000 0.000000 6.493890 0.218177 -4.362766 -4.276678 1.982194 -1.295261 -8.286752 4.849499 -0.566545 2.153407 -1.358928 -2.036406 0.000000 0.000000 0.000000 -18.226937 -2.394704 -2.549566 -49.763815 -4.001817 -3.398514 -6.907460 -14.995610 1.236949 0.000000 0.000000 0.000000 16.418696 -7.063039 -3.774922 63.882119 0.763573 -4.857320 5.902867 21.138803 1.955318 0.000000 0.000000 0.000000 
0.000512 0.937250 0.000084 1.898446 2.353487 6.314166 4.847999 -0.338213 -3.858750 0.925601 0.124206 -5.263084 0.918756 6.544443 12.514901 0.000000 0.000000 0.000000 -6.142792 0.408266 -4.537603 -2.606881 0.186230 -1.526412 -2.284918 -8.679088 10.600238 0.000000 0.000000 0.000000 5.856029 0.202009 -4.242258 -4.051465 1.870904 -2.349601 -8.686848 4.046991 -0.055913 1.408565 -0.818319 -1.917279 0.000000 0.000000 0.000000 -17.920787 -2.144511 -2.454344 -49.667907 -3.831331 -3.554741 -6.769255 -14.371351 1.190116 0.000000 0.000000 0.000000 17.510191 -6.222098 -3.512218 61.890054 0.146822 -5.235978 7.034578 21.789482 2.205609 0.000000 0.000000 0.000000 
0.000569 0.937195 0.000075 2.381305 2.867242 6.548144 4.793431 -0.364338 -4.242541 0.148419 0.165454 -5.184924 0.624599 6.157459 12.588348 0.000000 0.000000 0.000000 -6.442716 0.421138 -5.018016 -2.941443 0.265050 -0.831462 -2.615907 -9.220324 10.401787 0.000000 0.000000 0.000000 6.069874 0.204519 -4.343365 -4.858913 2.233512 -1.943732 -8.921455 3.161203 -0.939987 0.324451 -0.151777 -0.944474 0.000000 0.000000 0.000000 -17.869700 -1.497437 -2.681204 -49.693366 -4.215601 -3.337705 -5.769512 -14.832781 1.103973 0.000000 0.000000 0.000000 16.103189 -6.333565 -3.579921 62.725654 -0.760029 -5.590229 8.032242 22.857789 2.486166 0.000000 0.000000 0.000000 
0.000486 0.937803 0.000021 2.904178 3.218946 6.650826 4.085121 -0.382240 -4.472452 0.431445 0.145012 -5.060904 0.367611 5.877627 12.848847 0.000000 0.000000 0.000000 -6.858809 0.412680 -5.111464 -3.151857 0.300429 -0.643586 -2.802144 -9.561072 10.498747 0.000000 0.000000 0.000000 5.589392 0.209803 -4.483728 -4.323481 1.993836 -2.167655 -9.697275 3.079649 -0.845959 -0.085438 0.266767 -1.735233 0.000000 0.000000 0.000000 -17.299457 -1.316386 -2.727707 -49.711423 -4.258938 -3.344228 -6.488575 -14.838973 1.187396 0.000000 0.000000 0.000000 15.962847 -6.791644 -3.750602 62.631861 -1.212424 -5.796436 8.790028 23.350474 2.714338 0.000000 0.000000 0.000000 
0.000379 0.938508 0.000081 3.153293 2.869336 6.891973 3.840864 -0.403675 -4.821948 0.340882 0.140731 -4.784990 0.495798 6.121712 13.116554 0.000000 0.000000 0.000000 -6.934465 0.427142 -5.276723 -3.569029 0.319648 -0.942078 -2.634122 -9.318341 10.736217 0.000000 0.000000 0.000000 5.681209 0.228796 -4.720598 -4.659965 2.136477 -2.499038 -9.713488 3.008575 -0.778268 -0.299591 0.434287 -1.805175 0.000000 0.000000 0.000000 -17.479031 -0.740811 -2.986359 -49.416785 -4.292830 -3.317716 -6.440184 -14.932679 1.194003 0.000000 0.000000 0.000000 15.122258 -6.948559 -3.800976 63.178695 -1.634959 -6.028426 9.268894 23.609813 2.830866 0.000000 0.000000 0.000000 
0.000190 0.939073 0.000152 3.388240 2.750332 6.985922 3.510978 -0.416285 -4.982637 0.467155 0.127528 -4.628618 0.507348 6.192118 13.331116 0.000000 0.000000 0.000000 -7.048348 0.426599 -5.222306 -3.831724 0.322588 -1.245218 -2.563497 -9.234471 10.934749 0.000000 0.000000 0.000000 5.542476 0.234337 -4.811097 -4.711643 2.158424 -2.494177 -9.776924 2.735909 -0.737720 -0.503973 0.626754 -2.156486 0.000000 0.000000 0.000000 -17.210803 -0.318257 -3.070910 -49.490281 -3.731454 -3.579450 -7.076973 -15.967891 1.364711 0.000000 0.000000 0.000000 14.988722 -6.954322 -3.842919 63.224741 -1.984521 -6.234940 9.731857 24.490061 3.036790 0.000000 0.000000 0.000000 
0.000091 0.939638 0.000224 3.652150 3.046797 7.325334 3.191351 -0.458380 -5.527771 0.574986 0.112053 -4.387139 0.324279 6.004910 13.523597 0.000000 0.000000 0.000000 -7.172254 0.429906 -5.370870 -4.068099 0.330281 -1.462847 -2.698022 -9.508825 11.212265 0.000000 0.000000 0.000000 5.336070 0.253000 -5.163226 -4.670225 2.139057 -2.440756 -9.952138 2.466131 -0.750683 -0.649138 0.701733 -1.895639 0.000000 0.000000 0.000000 -17.126305 0.307189 -3.341985 -49.207215 -3.346421 -3.718168 -7.752671 -17.305281 1.573617 0.000000 0.000000 0.000000 14.870940 -7.286375 -4.013956 63.355334 -2.257576 -6.376001 10.185216 25.199354 3.234532 0.000000 0.000000 0.000000 
-0.000006 0.939949 0.000248 3.940238 3.103702 7.375605 2.872783 -0.469884 -5.626484 0.593159 0.107864 -4.303972 0.249807 5.943599 13.673634 0.000000 0.000000 0.000000 -7.362686 0.422581 -5.260553 -4.276646 0.332719 -1.688538 -2.724189 -9.572406 11.323532 0.000000 0.000000 0.000000 5.126713 0.261293 -5.315653 -4.599720 2.109341 -2.324473 -10.045661 2.332344 -0.812972 -0.607949 0.642023 -1.667460 0.000000 0.000000 0.000000 -16.628663 0.576987 -3.358666 -49.465379 -3.103490 -3.859053 -8.558406 -18.125525 1.768213 0.000000 0.000000 0.000000 14.663572 -7.182216 -3.954705 63.520614 -2.612958 -6.568321 10.499020 25.823452 3.390612 0.000000 0.000000 0.000000 
-0.000077 0.940269 0.000211 4.210783 3.127308 7.487469 2.575623 -0.492083 -5.871905 0.602955 0.098842 -4.079604 0.206258 5.920167 13.799723 0.000000 0.000000 0.000000 -7.546720 0.418116 -5.181966 -4.474205 0.326021 -2.002684 -2.731200 -9.609451 11.473874 0.000000 0.000000 0.000000 5.068108 0.266136 -5.419737 -4.714941 2.157456 -2.445725 -10.059508 2.282658 -0.794593 -0.454383 0.513510 -1.558013 0.000000 0.000000 0.000000 -16.471190 0.741251 -3.394954 -49.401083 -2.775179 -3.997625 -9.478432 -19.004748 2.001331 0.000000 0.000000 0.000000 14.770887 -7.362052 -4.063324 63.305287 -2.941734 -6.731472 10.790192 26.352208 3.536598 0.000000 0.000000 0.000000 
-0.000130 0.940401 0.000145 4.411082 2.902176 7.665572 2.369812 -0.514525 -6.132350 0.556103 0.095163 -3.901786 0.303962 6.077296 13.905768 0.000000 0.000000 0.000000 -7.673613 0.425338 -5.239720 -4.691688 0.316352 -2.336164 -2.632260 -9.463473 11.563232 0.000000 0.000000 0.000000 5.187201 0.288940 -5.702089 -4.787950 2.185986 -2.560373 -10.252330 2.464603 -0.925725 -0.257696 0.332229 -1.300649 0.000000 0.000000 0.000000 -16.274286 0.628583 -3.330254 -49.552414 -2.585972 -4.078199 -10.183343 -19.873513 2.200544 0.000000 0.000000 0.000000 14.701941 -7.229652 -3.971295 63.205050 -2.822199 -6.634938 11.130690 26.775774 3.687637 0.000000 0.000000 0.000000 
-0.000125 0.940448 0.000122 4.520121 3.052498 7.859786 2.167282 -0.525549 -6.214689 0.725115 0.094252 -4.165197 0.196931 5.968141 14.020371 0.000000 0.000000 0.000000 -7.667363 0.431302 -5.420969 -4.896583 0.337687 -2.299109 -2.720881 -9.620821 11.613851 0.000000 0.000000 0.000000 5.175859 0.302850 -5.940929 -4.572542 2.093018 -2.344458 -10.479567 2.268731 -1.664090 0.196454 -0.048860 -1.092997 0.000000 0.000000 0.000000 -16.036681 0.610686 -3.290394 -49.508779 -2.344104 -4.111505 -11.035444 -20.637673 2.425238 0.000000 0.000000 0.000000 14.597590 -7.133793 -3.929564 62.896028 -2.600334 -6.403341 11.570406 26.764731 3.769946 0.000000 0.000000 0.000000 
